<svg width="71" height="71" viewBox="0 0 71 71" fill="none" xmlns="http://www.w3.org/2000/svg">
<path d="M65.1152 16.9914H53.6727V5.54886C53.6727 2.76596 51.4067 0.5 48.6238 0.5H21.7004C18.9175 0.5 16.6516 2.76596 16.6516 5.54886V16.9914H5.21292C2.43003 16.9914 0.164062 19.2535 0.164062 22.0403V48.9636C0.164062 51.7465 2.43003 54.0125 5.21292 54.0125H16.6555V65.455C16.6555 68.2379 18.9175 70.5039 21.7043 70.5039H48.6277C51.4106 70.5039 53.6766 68.2379 53.6766 65.455V54.0125H65.1191C67.902 54.0125 70.1679 51.7465 70.1679 48.9636V22.0403C70.1641 19.2535 67.8981 16.9914 65.1152 16.9914ZM64.7771 48.6255H53.6727V27.7576H48.2895V65.113H22.0386V54.0086H42.9025V48.6255H5.54718V22.3745H16.6516V43.2385H22.0347V5.88312H48.2818V16.9875H27.4256V22.3706H64.7809V48.6255H64.7771Z" fill="url(#paint0_linear_48_107)"/>
<defs>
<linearGradient id="paint0_linear_48_107" x1="0.164062" y1="4.08994" x2="76.5607" y2="18.9545" gradientUnits="userSpaceOnUse">
<stop stop-color="#0EBE7E"/>
<stop offset="1" stop-color="#07D9AD"/>
</linearGradient>
</defs>
</svg>
