<svg width="19" height="19" viewBox="0 0 19 19" fill="none" xmlns="http://www.w3.org/2000/svg">
<path d="M15.5249 18.2112C11.5937 18.6258 7.65059 18.6258 3.71939 18.2112C2.15185 18.0458 0.913719 16.8222 0.746419 15.2728C0.326837 11.3876 0.326837 7.49067 0.746419 3.60543C0.913719 2.05621 2.15185 0.832553 3.71939 0.667209C7.65059 0.252532 11.5936 0.252532 15.5248 0.667209C17.0924 0.832553 18.3306 2.05621 18.4979 3.60543C18.9175 7.49067 18.9175 11.3876 18.4979 15.2728C18.3306 16.8222 17.0926 18.0458 15.5249 18.2112Z" fill="url(#paint0_linear_101_285)"/>
<path d="M17.4982 4.26242C17.3499 2.88769 16.2513 1.8018 14.8601 1.65502C11.3717 1.28719 7.8728 1.28719 4.38432 1.65502C2.99333 1.8018 1.89459 2.88769 1.74609 4.26242C1.3739 7.71012 1.3739 11.1681 1.74609 14.6156C1.89459 15.9905 2.99333 17.0764 4.38432 17.223C7.8728 17.591 11.3717 17.591 14.86 17.223C16.2511 17.0764 17.3499 15.9905 17.4982 14.6156C17.8705 11.1681 17.8705 7.71012 17.4982 4.26242Z" fill="url(#paint1_linear_101_285)"/>
<path d="M0.707001 14.8962C0.719622 15.0218 0.732664 15.1474 0.746266 15.2729C0.913566 16.8222 2.1517 18.0458 3.71938 18.2112C7.65058 18.6258 11.5936 18.6258 15.5248 18.2112C17.0924 18.0458 18.3304 16.8222 18.4977 15.2729C18.5113 15.1474 18.5244 15.0218 18.5371 14.8962H0.707001Z" fill="url(#paint2_linear_101_285)"/>
<path d="M12.7892 3.38159C11.1877 3.38159 9.88954 4.66471 9.88954 6.24747V8.38807H8.32901V11.0384L9.88954 12.4198V18.5213C11.769 18.5123 13.6482 18.4091 15.525 18.2112C17.0927 18.0458 18.3307 16.8222 18.498 15.2728C18.8101 12.382 18.8899 9.48478 18.7375 6.59063L15.4905 3.38159H12.7892Z" fill="url(#paint3_linear_101_285)"/>
<path d="M9.88954 18.5213C10.9605 18.5162 12.0313 18.4803 13.1018 18.4138V11.0384H15.233L15.4905 8.38807H13.1018V6.70511C13.1018 6.3334 13.4066 6.03209 13.7827 6.03209H15.4905V3.38159H12.7892C11.1877 3.38159 9.88954 4.66471 9.88954 6.24747V8.38807H8.32901V11.0384H9.88954V18.5213Z" fill="white"/>
<defs>
<linearGradient id="paint0_linear_101_285" x1="6.53453" y1="2.9103" x2="11.0945" y2="12.7819" gradientUnits="userSpaceOnUse">
<stop stop-color="#3457A0"/>
<stop offset="1" stop-color="#3B5998"/>
</linearGradient>
<linearGradient id="paint1_linear_101_285" x1="13.109" y1="11.8068" x2="-2.83719" y2="0.720671" gradientUnits="userSpaceOnUse">
<stop stop-color="#3457A0" stop-opacity="0"/>
<stop offset="1" stop-color="#1F3F77"/>
</linearGradient>
<linearGradient id="paint2_linear_101_285" x1="9.62201" y1="15.5373" x2="9.62201" y2="17.9955" gradientUnits="userSpaceOnUse">
<stop stop-color="#3457A0" stop-opacity="0"/>
<stop offset="1" stop-color="#1F3F77"/>
</linearGradient>
<linearGradient id="paint3_linear_101_285" x1="21.5331" y1="15.3584" x2="8.83652" y2="8.88055" gradientUnits="userSpaceOnUse">
<stop stop-color="#3457A0" stop-opacity="0"/>
<stop offset="0.3251" stop-color="#2A4C8D" stop-opacity="0.32549"/>
<stop offset="0.7045" stop-color="#22427D" stop-opacity="0.705882"/>
<stop offset="1" stop-color="#1F3F77"/>
</linearGradient>
</defs>
</svg>
