<svg width="19" height="19" viewBox="0 0 19 19" fill="none" xmlns="http://www.w3.org/2000/svg">
<path d="M5.58031 5.42053C6.63166 4.3727 8.08765 3.7225 9.6883 3.72404C11.164 3.72546 12.5104 4.27304 13.5316 5.17351C13.678 5.30252 13.9128 5.29404 14.0515 5.15701L15.925 3.3054C16.0775 3.15462 16.0733 2.90824 15.9148 2.76362C14.2449 1.24028 12.0025 0.321042 9.54251 0.357232C7.0554 0.393813 4.80565 1.41485 3.17134 3.03971C2.98911 3.22087 3.20226 5.41408 3.20226 5.41408C3.20226 5.41408 4.55448 6.44295 5.58031 5.42053Z" fill="url(#paint0_linear_101_272)"/>
<path d="M5.58004 5.42056C6.63139 4.37273 8.08737 3.72253 9.68802 3.72407C11.1638 3.72549 12.5102 4.27307 13.5314 5.17354C13.6777 5.30255 13.9125 5.29407 14.0512 5.15704L15.1263 4.09447C15.0327 4.02295 14.9403 3.94786 14.8502 3.869C13.4486 2.64215 11.6249 1.86148 9.60051 1.88249C7.50098 1.90429 5.61521 2.75062 4.25167 4.10765C4.10257 4.25604 4.04401 5.41646 4.04401 5.41646C4.04401 5.41646 4.21895 5.40082 5.58004 5.42056Z" fill="url(#paint1_linear_101_272)"/>
<path d="M3.89998 9.38757C3.88557 10.9954 4.54295 12.4516 5.61121 13.4984L4.79128 15.2472L3.20187 15.8796C1.53101 14.2372 0.495557 11.9643 0.491953 9.4524C0.488349 6.95796 1.51299 4.68792 3.17124 3.03979L5.58021 5.42061C4.55449 6.4429 3.91368 7.84382 3.89998 9.38757Z" fill="url(#paint2_linear_101_272)"/>
<path d="M3.89996 9.38745C3.88555 10.9953 4.54294 12.4515 5.61119 13.4983L4.29389 14.8006C2.9265 13.4584 2.06981 11.6087 2.03701 9.56128C2.00277 7.43158 2.85225 5.50064 4.25208 4.10791L5.58019 5.42049C4.55447 6.44278 3.91366 7.8437 3.89996 9.38745Z" fill="url(#paint3_linear_101_272)"/>
<path d="M13.7584 13.5031C12.7047 14.535 11.2499 15.1643 9.64511 15.1543C8.07213 15.1445 6.64852 14.5137 5.61176 13.498L3.20221 15.8794C4.85761 17.5065 7.13648 18.5146 9.65368 18.5222C12.176 18.5299 14.47 17.5048 16.1389 15.8558L15.4502 14.4005L13.7584 13.5031Z" fill="url(#paint4_linear_101_272)"/>
<path d="M13.7582 13.503C12.7044 14.5349 11.2497 15.1644 9.64498 15.1544C8.07205 15.1446 6.64843 14.5138 5.61167 13.498L4.29395 14.8004C5.67622 16.1575 7.5802 16.9963 9.68243 16.9963C11.7847 16.9963 13.6886 16.1575 15.0709 14.8004L13.7582 13.503Z" fill="url(#paint5_linear_101_272)"/>
<path d="M18.8728 8.50637C18.8728 8.32731 18.7259 8.18213 18.5447 8.18213H9.99004C9.82775 8.18213 9.69617 8.31218 9.69617 8.47257V11.268C9.69617 11.4284 9.82775 11.5585 9.99004 11.5585H14.1679C14.5983 11.5585 14.8655 12.0226 14.6442 12.3873C14.3971 12.7944 14.0999 13.1674 13.7617 13.4992C13.7604 13.5005 13.7595 13.5017 13.7582 13.503L16.1391 15.8561C16.2515 15.745 16.3656 15.6338 16.4806 15.5223C17.9681 13.8919 18.8728 11.7287 18.8728 9.36887V8.50637Z" fill="url(#paint6_linear_101_272)"/>
<path d="M16.9424 11.8179C17.2787 10.8134 16.5254 9.77759 15.455 9.77759H9.69617V11.2681C9.69617 11.4285 9.82775 11.5585 9.99004 11.5585H14.1679C14.5983 11.5585 14.8655 12.0226 14.6442 12.3873C14.3979 12.7931 14.1018 13.1649 13.7649 13.496C13.7626 13.4983 13.7607 13.5006 13.7582 13.503L15.0708 14.8003C15.7686 14.1161 16.333 13.2993 16.7233 12.3917C16.8037 12.204 16.8768 12.0127 16.9424 11.8179Z" fill="url(#paint7_linear_101_272)"/>
<defs>
<linearGradient id="paint0_linear_101_272" x1="3.09767" y1="3.11473" x2="16.0366" y2="3.11473" gradientUnits="userSpaceOnUse">
<stop stop-color="#FF637B"/>
<stop offset="1" stop-color="#F90217"/>
</linearGradient>
<linearGradient id="paint1_linear_101_272" x1="12.8961" y1="8.02781" x2="4.86253" y2="-0.100845" gradientUnits="userSpaceOnUse">
<stop stop-color="#FF637B"/>
<stop offset="1" stop-color="#F90217"/>
</linearGradient>
<linearGradient id="paint2_linear_101_272" x1="0.710505" y1="7.01263" x2="5.64947" y2="12.01" gradientUnits="userSpaceOnUse">
<stop stop-color="#FFD833"/>
<stop offset="1" stop-color="#F2B631"/>
</linearGradient>
<linearGradient id="paint3_linear_101_272" x1="6.84386" y1="11.9951" x2="1.56664" y2="6.65546" gradientUnits="userSpaceOnUse">
<stop stop-color="#FFD833"/>
<stop offset="1" stop-color="#F2B631"/>
</linearGradient>
<linearGradient id="paint4_linear_101_272" x1="8.89088" y1="14.7097" x2="11.6466" y2="17.498" gradientUnits="userSpaceOnUse">
<stop stop-color="#28A265"/>
<stop offset="1" stop-color="#28895E"/>
</linearGradient>
<linearGradient id="paint5_linear_101_272" x1="13.2448" y1="18.3211" x2="5.27348" y2="10.2555" gradientUnits="userSpaceOnUse">
<stop stop-color="#28A265"/>
<stop offset="1" stop-color="#28895E"/>
</linearGradient>
<linearGradient id="paint6_linear_101_272" x1="13.6102" y1="9.21382" x2="17.8371" y2="13.4907" gradientUnits="userSpaceOnUse">
<stop stop-color="#7FAEF4"/>
<stop offset="1" stop-color="#4C8DF1"/>
</linearGradient>
<linearGradient id="paint7_linear_101_272" x1="17.1923" y1="14.8248" x2="11.7049" y2="9.27252" gradientUnits="userSpaceOnUse">
<stop stop-color="#7FAEF4"/>
<stop offset="1" stop-color="#4C8DF1"/>
</linearGradient>
</defs>
</svg>
