<!DOCTYPE svg PUBLIC "-//W3C//DTD SVG 1.1//EN" "http://www.w3.org/Graphics/SVG/1.1/DTD/svg11.dtd">
<!-- Uploaded to: SVG Repo, www.svgrepo.com, Transformed by: SVG Repo Mixer Tools -->
<svg fill="#000000" width="800px" height="800px" viewBox="-25.6 -25.6 307.20 307.20" id="Flat" xmlns="http://www.w3.org/2000/svg" stroke="#000000" stroke-width="0.00256" transform="rotate(0)">
<g id="SVGRepo_bgCarrier" stroke-width="0"/>
<g id="SVGRepo_tracerCarrier" stroke-linecap="round" stroke-linejoin="round"/>
<g id="SVGRepo_iconCarrier"> <path d="M224,44H160a43.87293,43.87293,0,0,0-32,13.84766A43.87293,43.87293,0,0,0,96,44H32A20.02229,20.02229,0,0,0,12,64V192a20.02229,20.02229,0,0,0,20,20H96a20.02229,20.02229,0,0,1,20,20,12,12,0,0,0,24,0,20.02229,20.02229,0,0,1,20-20h64a20.02229,20.02229,0,0,0,20-20V64A20.02229,20.02229,0,0,0,224,44ZM96,188H36V68H96a20.02229,20.02229,0,0,1,20,20V192.81348A43.74015,43.74015,0,0,0,96,188Zm124,0H160a43.71537,43.71537,0,0,0-20,4.82813V88a20.02229,20.02229,0,0,1,20-20h60Z"/> </g>
</svg>